-
 
http://www.Speed. Cd       the fast  and The Hottest Private Tracker on the net 
http://www.Speed. Cd

Please Seed back to make the speed Faster!!
 ............ NFO .............
-
 
http://www.Speed. Cd[IMG]http://lookpic.com/O/i2/1018/riB8AN7s.jpeg[/IMG]

[IMG]http://lookpic.com/O/i2/869/WBAKamld.jpeg[/IMG]

[IMG]http://lookpic.com/O/i2/1446/ZWJbKtHz.jpeg[/IMG]

Source:Tihaja.gavan.2013.DVD5
Audio: ours..with added audio and sync fix at end.
 
http://www.imdb.com/title/tt1702439/

Format                           : AVI
Format/Info                      : Audio Video Interleave
File size                        : 1.27 GiB
Duration                         : 1h 55mn
Overall bit rate                 : 1 573 Kbps
Writing library                  : VirtualDub build 35390/release

Video
ID                               : 0
Format                           : MPEG-4 Visual
Format profile                   : Advanced Simple@L5
Format settings, BVOP            : Yes
Format settings, QPel            : No
Format settings, GMC             : No warppoints
Format settings, Matrix          : Default (H.263)
Muxing mode                      : Packed bitstream
Codec ID                         : XVID
Codec ID/Hint                    : XviD
Duration                         : 1h 55mn
Bit rate                         : 1 436 Kbps
Width                            : 720 pixels
Height                           : 400 pixels
Display aspect ratio             : 16:9
Frame rate                       : 24.000 fps
Original frame rate              : 25.000 fps
Color space                      : YUV
Chroma subsampling               : 4:2:0
Bit depth                        : 8 bits
Scan type                        : Progressive
Bits/(Pixel*Frame)               : 0.208
Stream size                      : 1.16 GiB (91%)
Writing library                  : XviD 1.2.1 (UTC 2008-12-04)

Audio
ID                               : 1
Format                           : MPEG Audio
Format version                   : Version 1
Format profile                   : Layer 3
Mode                             : Joint stereo
Mode extension                   : MS Stereo
Codec ID                         : 55
Codec ID/Hint                    : MP3
Duration                         : 1h 55mn
Bit rate mode                    : Constant
Bit rate                         : 128 Kbps
Channel(s)                       : 2 channels
Sampling rate                    : 48.0 KHz
Stream size                      : 105 MiB (8%)
Alignment                        : Split accross interleaves
Interleave, duration             : 42 ms (1.00 video frame)
Interleave, preload duration     : 500 ms
Writing library                  : LAME3.98.2

Workdone: 
Clean up the R5 vobs since the source was very dark and needed some TLC. Most of the work was put toward the audio which took around 3 hours. Added audio for 3 parts the beginning, near the end when he hands her the letter and the end credits. There's a 30 second fill in with russian line back ground noise to fill in the part where he talk to her while handing the letter. Also did some more audio tweaking to try to match them up. There shouldnt of been any russian speaking parts at the end of the other R5 sources uploaded. Best I can do till English DVD comes out. So enjoy this proper fix

[IMG]http://lookpic.com/O/i2/1465/ArAl3Z3F.jpeg[/IMG]

[IMG]http://lookpic.com/O/i2/850/WYHQvPl6.png[/IMG]
[IMG]http://lookpic.com/O/i2/650/kNmuMRWS.png[/IMG]
[IMG]http://lookpic.com/O/i2/817/QVCM8mrm.png[/IMG]
[IMG]http://lookpic.com/O/i2/1031/b5fky3qB.png[/IMG]
[IMG]http://lookpic.com/O/i2/1893/XROt2Usa.png[/IMG]
[IMG]http://lookpic.com/O/i2/692/4ehkhmlZ.png[/IMG]
[IMG]http://lookpic.com/O/i2/871/hF3ZoRH6.png[/IMG]
[IMG]http://lookpic.com/O/i2/1698/a9xx81Qr.png[/IMG]

Greets to all that show respect.